# xmcd
#
# Track frame offsets:
#  150
#  15158
#  28560
#  42230
#  57468
#  78048
#  91493
#  104758
#  131805
#  140588
#  157530
#  171873
#  192295
#
# Disc length: 2768 seconds
#
# Revision: 0
# Processed by: cddbd v1.5.2PL0 Copyright (c) Steve Scherf et al.
# Submitted via: Collectorz.com_Music_Collector 6.11
#
DISCID=a00ace0d
DTITLE=Savannah - Lights In The Night
DYEAR=1993
DGENRE=
TTITLE0=Hopless Love
TTITLE1=Lights In The Night
TTITLE2=Don't Close Your Eyes On Me Again
TTITLE3=Come With Me
TTITLE4=It's Over
TTITLE5=Beautiful As You
TTITLE6=Six Days On The Road
TTITLE7=Angels Go Bay
TTITLE8=No-Ones Valley
TTITLE9=Tomorrow
TTITLE10=The Thoughts Of You
TTITLE11=I Found Your Love
TTITLE12=It's You And Only You
EXTD=
EXTT0=
EXTT1=
EXTT2=
EXTT3=
EXTT4=
EXTT5=
EXTT6=
EXTT7=
EXTT8=
EXTT9=
EXTT10=
EXTT11=
EXTT12=
PLAYORDER=
